<?xml version="1.0" encoding="UTF-8" standalone="no"?>
<!-- Created with Inkscape (http://www.inkscape.org/) -->

<svg
   xmlns:dc="http://purl.org/dc/elements/1.1/"
   xmlns:cc="http://creativecommons.org/ns#"
   xmlns:rdf="http://www.w3.org/1999/02/22-rdf-syntax-ns#"
   xmlns:svg="http://www.w3.org/2000/svg"
   xmlns="http://www.w3.org/2000/svg"
   xmlns:sodipodi="http://sodipodi.sourceforge.net/DTD/sodipodi-0.dtd"
   xmlns:inkscape="http://www.inkscape.org/namespaces/inkscape"
   width="163.56268mm"
   height="135.46666mm"
   viewBox="0 0 163.56268 135.46666"
   version="1.1"
   id="svg17561"
   inkscape:version="0.92.0 r15299"
   sodipodi:docname="favicon_a.svg">
  <defs
     id="defs17555">
    <filter
       id="filter5554-1-5-60"
       style="color-interpolation-filters:sRGB"
       inkscape:collect="always">
      <feBlend
         id="feBlend5556-8-2-4"
         in2="BackgroundImage"
         mode="overlay"
         inkscape:collect="always" />
    </filter>
    <filter
       height="1.014136"
       y="-0.0070679709"
       width="1.0048301"
       x="-0.0024150377"
       id="filter16090-7-2"
       style="color-interpolation-filters:sRGB"
       inkscape:collect="always">
      <feGaussianBlur
         id="feGaussianBlur16092-5-1"
         stdDeviation="0.21486375"
         inkscape:collect="always" />
    </filter>
    <filter
       height="1.014136"
       y="-0.0070679709"
       width="1.0048301"
       x="-0.0024150377"
       id="filter16090-8"
       style="color-interpolation-filters:sRGB"
       inkscape:collect="always">
      <feGaussianBlur
         id="feGaussianBlur16092-0"
         stdDeviation="0.21486375"
         inkscape:collect="always" />
    </filter>
  </defs>
  <sodipodi:namedview
     id="base"
     pagecolor="#ffffff"
     bordercolor="#666666"
     borderopacity="1.0"
     inkscape:pageopacity="0.0"
     inkscape:pageshadow="2"
     inkscape:zoom="0.24748737"
     inkscape:cx="83.576973"
     inkscape:cy="41.115888"
     inkscape:document-units="mm"
     inkscape:current-layer="layer1"
     showgrid="false"
     inkscape:window-width="1366"
     inkscape:window-height="705"
     inkscape:window-x="-8"
     inkscape:window-y="-8"
     inkscape:window-maximized="1" />
  <metadata
     id="metadata17558">
    <rdf:RDF>
      <cc:Work
         rdf:about="">
        <dc:format>image/svg+xml</dc:format>
        <dc:type
           rdf:resource="http://purl.org/dc/dcmitype/StillImage" />
        <dc:title></dc:title>
      </cc:Work>
    </rdf:RDF>
  </metadata>
  <g
     inkscape:label="1. réteg"
     inkscape:groupmode="layer"
     id="layer1"
     transform="translate(-17.248415,-77.320229)">
    <circle
       id="circle7386"
       cy="145.05356"
       cx="98.273804"
       style="fill:#8dd35f;fill-opacity:1;stroke-width:0.26458332"
       r="67.73333" />
    <path
       sodipodi:nodetypes="cccccccccccccccccccccccccccccccccccccccccccccccc"
       inkscape:connector-curvature="0"
       id="path21051-5"
       transform="matrix(-0.17644187,0.30587106,0.37889799,0.18952922,-63.844659,-49.725776)"
       d="m 439.55273,484.6875 c -1.93764,0.91542 -3.65407,3.05125 -5.32812,4.82812 -0.43664,0.46354 -3.94987,7.06426 -5.34766,8.7793 1.81751,-0.72804 8.02381,-1.81621 8.83789,-1.9668 4.13732,-0.76572 5.56209,-5.09196 7.81641,-7.51562 2.19898,1.65556 4.30765,3.40632 6.31445,5.25391 -3.41815,1.99375 5.58679,3.28917 -3.20969,3.09356 -0.0641,0.95012 0,0 5.58741,4.1356 6.46121,2.99738 2.29974,0.4703 4.09885,-0.50455 1.77541,2.08273 3.43988,4.25578 4.97461,6.53125 -0.61501,-0.25456 -1.1674,-0.40198 -1.54102,-0.27539 -0.39693,0.13441 -16.5947,2.2203 -17.09584,1.92547 0.0767,0.0891 4.72874,9.66755 13.506,8.31476 1.31346,0.068 3.7943,1.75956 5.36523,2.48828 6.10964,2.83428 4.84993,-7.49486 8.33008,9.27344 1.08506,5.22761 -17.97564,-2.99913 -18.76558,-0.74577 -1.57979,4.50693 10.82323,19.69791 16.86714,13.28288 0.25711,-0.27268 3.09088,-0.21037 3.20313,0.33008 -15.1827,10.96917 14.50563,32.76368 10.57617,-1.0625 0.0431,-0.0419 0.0851,-0.0758 0.12695,-0.10743 -0.0629,-0.003 -0.0497,0.002 -0.12109,-0.002 0.1475,-3.61115 0.14788,-7.30368 -0.004,-11.07812 -0.41672,-0.86892 -0.8391,-1.77713 -1.25391,-2.65821 1.35109,-1.33363 2.17993,-2.98541 1.7168,-5.21679 -0.42956,-2.06975 -0.9745,-7.7313 0.63672,-9.44141 0.37074,-0.39349 4.14994,-4.26631 3.98956,-4.09588 -1.21129,1.2857 -6.36152,3.0532 -7.90558,3.57635 -0.26323,0.0892 -2.15406,2.19314 -3.80273,4.02344 -0.58532,-1.15996 -1.17586,-2.32146 -1.80273,-3.49024 -0.12794,-0.30621 -0.31117,-0.62627 -0.50977,-0.94726 -0.71828,-1.3141 -1.47319,-2.63208 -2.26172,-3.95313 -0.006,-0.0583 -0.0132,-0.1165 -0.01,-0.17187 0.0623,-0.92372 4.39388,-3.38611 5.10742,-5.42188 1.99677,-5.6963 -1.92929,-6.53433 -1.57617,-11.76953 0.0611,-0.90483 2.20171,-4.39879 2.15429,-4.62695 -0.87405,-4.21128 -8.60758,7.83857 -10.85351,8.59961 -0.75644,0.25622 -12.78657,-5.42725 -13.07101,-6.79775 -0.42088,-2.02779 5.32565,-5.20638 4.35547,-9.88086 -0.64981,-3.13099 0.32028,-11.06476 0.11366,-12.82315 -0.89611,1.2971 -6.68605,6.35617 -8.21718,7.98136 -4.39471,4.66449 6.36523,12.12506 1.02413,9.64735 -4.08785,-1.8964 -3.04318,-13.96103 -9.32802,-16.87656 -2.06892,-0.95974 -2.75849,-18.00253 -4.47156,-16.18429 -0.68362,0.72558 -5.89985,8.56467 -6.238,9.52925 -0.76045,2.16972 4.65279,12.17316 4.6059,13.72105 -5.38501,-3.12578 -14.03389,3.44765 -20.94593,0.52889 13.93326,12.94952 11.4932,1.58456 24.35255,11.77001 z"
       style="fill:#3b5825;fill-opacity:1;stroke:#3b5825;stroke-width:0.65987188;stroke-linecap:butt;stroke-linejoin:miter;stroke-miterlimit:4;stroke-dasharray:none;stroke-opacity:1;filter:url(#filter16090-8);enable-background:new" />
    <path
       sodipodi:nodetypes="cccccccccccccccccccccccccccccccccccccccccccccccc"
       inkscape:connector-curvature="0"
       id="path21051-9-8"
       transform="matrix(0.16499352,-0.31219542,-0.38565693,-0.17536748,272.98778,338.02202)"
       d="m 439.55273,484.6875 c -1.93764,0.91542 -3.65407,3.05125 -5.32812,4.82812 -0.43664,0.46354 -3.94987,7.06426 -5.34766,8.7793 1.81751,-0.72804 8.02381,-1.81621 8.83789,-1.9668 4.13732,-0.76572 5.56209,-5.09196 7.81641,-7.51562 2.19898,1.65556 4.30765,3.40632 6.31445,5.25391 -3.41815,1.99375 5.58679,3.28917 -3.20969,3.09356 -0.0641,0.95012 0,0 5.58741,4.1356 6.46121,2.99738 2.29974,0.4703 4.09885,-0.50455 1.77541,2.08273 3.43988,4.25578 4.97461,6.53125 -0.61501,-0.25456 -1.1674,-0.40198 -1.54102,-0.27539 -0.39693,0.13441 -16.5947,2.2203 -17.09584,1.92547 0.0767,0.0891 4.72874,9.66755 13.506,8.31476 1.31346,0.068 3.7943,1.75956 5.36523,2.48828 6.10964,2.83428 4.84993,-7.49486 8.33008,9.27344 1.08506,5.22761 -17.97564,-2.99913 -18.76558,-0.74577 -1.57979,4.50693 10.82323,19.69791 16.86714,13.28288 0.25711,-0.27268 3.09088,-0.21037 3.20313,0.33008 -15.1827,10.96917 14.50563,32.76368 10.57617,-1.0625 0.0431,-0.0419 0.0851,-0.0758 0.12695,-0.10743 -0.0629,-0.003 -0.0497,0.002 -0.12109,-0.002 0.1475,-3.61115 0.14788,-7.30368 -0.004,-11.07812 -0.41672,-0.86892 -0.8391,-1.77713 -1.25391,-2.65821 1.35109,-1.33363 2.17993,-2.98541 1.7168,-5.21679 -0.42956,-2.06975 -0.9745,-7.7313 0.63672,-9.44141 0.37074,-0.39349 4.14994,-4.26631 3.98956,-4.09588 -1.21129,1.2857 -6.36152,3.0532 -7.90558,3.57635 -0.26323,0.0892 -2.15406,2.19314 -3.80273,4.02344 -0.58532,-1.15996 -1.17586,-2.32146 -1.80273,-3.49024 -0.12794,-0.30621 -0.31117,-0.62627 -0.50977,-0.94726 -0.71828,-1.3141 -1.47319,-2.63208 -2.26172,-3.95313 -0.006,-0.0583 -0.0132,-0.1165 -0.01,-0.17187 0.0623,-0.92372 4.39388,-3.38611 5.10742,-5.42188 1.99677,-5.6963 -1.92929,-6.53433 -1.57617,-11.76953 0.0611,-0.90483 2.20171,-4.39879 2.15429,-4.62695 -0.87405,-4.21128 -8.60758,7.83857 -10.85351,8.59961 -0.75644,0.25622 -12.78657,-5.42725 -13.07101,-6.79775 -0.42088,-2.02779 5.32565,-5.20638 4.35547,-9.88086 -0.64981,-3.13099 0.32028,-11.06476 0.11366,-12.82315 -0.89611,1.2971 -6.68605,6.35617 -8.21718,7.98136 -4.39471,4.66449 6.36523,12.12506 1.02413,9.64735 -4.08785,-1.8964 -3.04318,-13.96103 -9.32802,-16.87656 -2.06892,-0.95974 -2.75849,-18.00253 -4.47156,-16.18429 -0.68362,0.72558 -5.89985,8.56467 -6.238,9.52925 -0.76045,2.16972 4.65279,12.17316 4.6059,13.72105 -5.38501,-3.12578 -14.03389,3.44765 -20.94593,0.52889 13.93326,12.94952 11.4932,1.58456 24.35255,11.77001 z"
       style="fill:#3b5825;fill-opacity:1;stroke:#3b5825;stroke-width:0.65987188;stroke-linecap:butt;stroke-linejoin:miter;stroke-miterlimit:4;stroke-dasharray:none;stroke-opacity:1;filter:url(#filter16090-7-2);enable-background:new" />
    <g
       transform="matrix(0.04472429,1.9652927,-1.8648464,0.04243843,332.02347,329.98496)"
       id="layer1-7"
       inkscape:label="1. réteg"
       style="fill:#000000;fill-opacity:1">
      <path
         transform="matrix(0.26458333,0,0,0.26458333,-137.92371,109.00728)"
         sodipodi:nodetypes="ccccccccccccccccccsccccsccccccccsccccccscccccsccccccccccccccccccccccccccccc"
         inkscape:connector-curvature="0"
         id="path6033-8-3"
         d="m 26.000002,44.415191 v 13 c 45.372363,43.040049 88.795438,52.189299 132.281148,9.502214 1.37787,-1.341 4.12109,-3.8809 4.12109,-3.8809 26.36237,26.6517 58.63629,49.262245 101.62695,19.7519 11.98909,-9.863556 16.98909,-13.863556 21.98909,-25.863556 -3,-3 -3,-4 -5.17857,-5.508929 -3.63752,4.5569 -11.8397,17.999271 -16.8397,19.999271 0,-6 -2.18504,-34.765386 -0.97668,-37.763486 -0.0948,0.6152 9.58281,1.470572 17.77174,17.907072 1.22321,2.366072 5.22321,5.366072 5.22321,5.366072 V 44.924848 C 254.43366,0.10064758 197.4591,0.80950504 162.31435,41.718105 c -2.49977,2.525 -1.21994,2.177982 -1.8418,1.5098 C 118.14287,-7.5133814 60.479172,2.0516045 26.000002,44.415191 Z M 98.574144,19.245505 c 4.233626,0.1032 9.097946,1.4026 8.912116,2.5547 -2.69912,18.8433 -1.09179,61.0449 -1.09179,61.0449 -3.44717,0.78974 -7.856966,2.20035 -12.845716,1.24999 -0.83795,-11.23759 -0.34375,-15.57459 -0.34375,-30.12699 0,-2.0922 -0.34179,-33.3261 -0.34179,-33.3261 0.85843,-1.0898 3.17076,-1.4585 5.71093,-1.3965 z m -13.55859,0.5957 c 0.23205,0.2392 0.3264,2.1453 0.33789,4.8926 0.0344,8.2418 -0.67969,24.0754 -0.67969,25.3496 0,11.8172 0.164319,22.206386 -0.673751,31.331786 -7,-1 -9.5026,-2.1941 -15,-6 -0.435472,-3.459214 1.357981,-33.152286 1.050711,-49.640386 6.87835,-3.475 14.96484,-5.9336 14.96484,-5.9336 z m 145.259776,0.6933 c 1.81381,0.023 3.04994,0.2889 2.95703,0.8321 -2.69913,17.765 -0.78459,64.912357 -0.78459,64.912357 -3.44717,0.74455 -8.54094,-0.33756 -14.55468,-0.82812 -0.83808,-10.59458 0.37249,-16.827437 0.37249,-30.547137 0,-1.9725 -1.2677,-30.3093 -0.33984,-31.4199 1.57387,-1.8837 8.35921,-3.0002 12.34961,-2.9493 z m -114.98243,1.9844 c 3.31427,1.6286 14.2369,7.5178 13.93946,9.127 -0.99065,16.0698 -1.09375,43.041 -1.09375,43.041 -3.44719,0.6893 -7.51545,4.5414 -13.5293,6.3594 -0.83807,-9.8095 -0.3418,-15.8654 -0.3418,-28.5684 0,-1.8263 0.0975,-28.9307 1.02539,-29.959 z m 127.45313,1.5137 c 3.31414,1.6285 14.60201,5.0217 14.30469,6.6308 -0.99065,16.0698 -1.45703,45.5372 -1.45703,45.5372 -3.44729,0.6893 -7.51946,4.5453 -13.53321,6.3632 -0.83795,-9.8094 -0.33984,-15.8692 -0.33984,-28.5722 0,-1.8263 0.0975,-28.9307 1.02539,-29.959 z m -33.87695,0.4687 c 0.92786,0.9364 0.86718,27.3935 0.86718,29.0567 0,5.7841 0.12327,10.0561 0.14258,13.998 0.019,3.942 -0.42194,8.626429 -0.84151,13.092929 -6.01375,-1.6554 -9.72682,-6.236729 -13.17411,-6.864429 0,0 0.62697,-26.1379 -2.07227,-41.1171 -0.29732,-1.4654 15.07813,-8.1661 15.07813,-8.1661 z m -148.634766,6.3088 c 0,10 0.406937,37.815558 -0.945753,40.813458 0.10543,-0.6151 -18.110552,-6.198958 -26.917942,-20.069458 1.80278,-5.744 14.514795,-15.1836 27.863655,-20.744 z m 75.640616,3.9783 c 6.5148,3.2885 14.05115,13.2167 18.12305,17.7735 -9.49076,12.3559 -18.57015,15.6894 -18.46484,16.3047 -1.35264,-2.9982 1.80733,-27.5818 0.34179,-34.0782 z m 50.39844,0.09 c 0.33334,5.2055 1.54042,20.0855 1.55274,28.4648 0,2.7931 -0.12482,4.8638 -0.46289,5.6133 -1.47904,-0.7789 -6.42638,-1.8553 -19.33399,-14.5898 0,0 -2.57669,-3.0738 -3.92187,-5.5528 -0.0344,-0.064 -0.10249,-0.1571 -0.14063,-0.2246 l -4.09961,-5.832 c 0,0 2.88734,3.6991 4.09961,5.832 l 4.0625,5.7774 c 3.75362,-6.0377 12.2535,-17.7315 18.24414,-19.4883 z"
         style="fill:#000000;fill-opacity:1;stroke:none;stroke-width:0.52247208px;stroke-linecap:butt;stroke-linejoin:miter;stroke-opacity:1;filter:url(#filter5554-1-5-60)" />
    </g>
  </g>
</svg>
